<?xml version="1.0" standalone="no"?>
<!DOCTYPE svg PUBLIC "-//W3C//DTD SVG 20010904//EN"
 "http://www.w3.org/TR/2001/REC-SVG-20010904/DTD/svg10.dtd">
<svg version="1.0" xmlns="http://www.w3.org/2000/svg"
 width="4885.000000pt" height="3395.000000pt" viewBox="0 0 4885.000000 3395.000000"
 preserveAspectRatio="xMidYMid meet">

<g transform="translate(0.000000,3395.000000) scale(0.100000,-0.100000)"
fill="#000000" stroke="none">
<path d="M5050 32253 c-480 -12 -996 -73 -1415 -168 -1560 -354 -2571 -1249
-3041 -2694 -168 -514 -264 -1092 -294 -1771 -17 -368 -8 -22635 8 -22815 53
-571 95 -833 192 -1210 137 -532 322 -963 586 -1366 465 -710 1148 -1216 2042
-1515 466 -155 969 -249 1587 -296 251 -19 38269 -19 38520 0 1203 91 2085
382 2800 922 902 682 1435 1764 1579 3205 43 422 41 -42 41 11755 0 11812 2
11363 -41 11795 -78 793 -290 1525 -604 2087 -93 166 -239 378 -255 372 -10
-4 -15 0 -15 11 0 10 5 13 12 9 7 -4 8 -3 4 4 -5 9 -13 9 -27 2 -11 -6 -24 -8
-29 -5 -6 3 -10 1 -10 -6 0 -6 8 -9 20 -6 13 3 20 0 20 -9 0 -8 -6 -14 -12
-13 -25 3 -38 -1 -38 -12 0 -8 5 -7 15 1 13 11 14 10 9 -4 -3 -9 -12 -17 -20
-17 -34 -3 -39 -6 -37 -17 2 -7 -4 -9 -14 -5 -13 5 -15 2 -9 -12 4 -11 4 -16
0 -13 -4 4 -15 3 -25 -3 -15 -7 -19 -6 -19 5 0 10 6 13 15 10 9 -4 15 0 15 10
0 22 -6 20 -45 -11 -31 -25 -37 -43 -14 -43 6 0 7 5 4 10 -3 6 -1 10 4 10 14
0 14 -17 0 -26 -6 -3 -16 -1 -22 5 -6 6 -18 11 -26 11 -11 0 -10 -4 5 -14 16
-13 17 -17 5 -28 -12 -11 -13 -11 -7 2 4 8 -2 4 -13 -10 -11 -14 -21 -20 -21
-15 0 6 5 16 11 22 7 7 7 13 1 17 -6 3 -17 0 -25 -8 -11 -11 -17 -12 -27 -3
-10 10 -12 8 -7 -6 5 -13 0 -20 -18 -27 -14 -5 -25 -15 -25 -21 0 -7 -3 -10
-6 -7 -3 4 -14 -1 -24 -10 -49 -44 -49 -44 -73 -19 -12 13 -48 55 -80 94 -81
99 -291 302 -421 405 -341 273 -746 478 -1231 625 -82 25 -162 49 -177 53 -16
5 -28 7 -28 4 0 -3 -8 0 -19 5 -14 8 -396 91 -417 91 -3 0 -3 4 0 8 2 4 1 14
-3 21 -6 9 -11 10 -15 2 -4 -6 -2 -11 4 -11 6 0 8 -4 5 -10 -3 -5 -14 -10 -24
-10 -13 0 -20 9 -23 32 -5 28 -4 29 9 13 16 -23 17 -12 2 17 -10 18 -9 20 5
15 9 -4 16 -1 16 6 0 8 4 7 11 -3 9 -13 10 -13 6 0 -2 8 -10 15 -18 15 -7 0
-15 9 -17 20 -3 16 -1 17 7 5 7 -9 11 -10 11 -3 0 6 -4 15 -10 18 -16 10 -12
38 5 31 9 -3 15 0 15 9 0 19 -17 28 -24 13 -2 -7 -4 14 -4 48 1 34 -2 66 -6
72 -3 6 2 15 11 21 10 6 13 11 7 11 -7 0 -15 7 -18 16 -4 11 -2 15 8 11 13 -5
13 -2 4 18 -8 18 -7 30 5 54 9 17 12 29 7 26 -4 -3 -13 2 -20 10 -11 13 -10
14 5 9 13 -5 16 -3 13 7 -3 8 -11 13 -17 11 -17 -3 -24 24 -12 47 10 17 9 20
-4 15 -8 -4 -15 -2 -15 4 0 5 -24 13 -52 16 -263 35 -379 49 -543 63 -178 16
-1407 17 -19140 18 -10422 1 -18997 0 -19055 -2z m38773 -328 c-7 -21 -13 -19
-13 6 0 11 4 18 10 14 5 -3 7 -12 3 -20z m-2350 -2150 c34 -8 71 -17 82 -20
11 -2 38 -9 60 -15 22 -6 51 -13 65 -16 13 -3 30 -10 37 -16 7 -6 13 -8 13 -5
0 9 252 -79 385 -135 134 -56 391 -183 417 -206 10 -8 24 -12 33 -8 8 3 137
89 286 191 263 181 271 185 297 172 52 -27 92 -52 92 -58 0 -3 -126 -90 -280
-194 -154 -104 -278 -190 -276 -192 2 -2 131 83 288 188 l286 191 55 -38 c31
-22 56 -41 56 -44 1 -3 -125 -88 -279 -190 -154 -102 -280 -188 -280 -193 0
-4 87 50 193 121 105 71 236 156 289 191 l97 62 53 -42 c29 -23 52 -48 52 -55
-1 -7 4 -10 11 -8 15 6 155 -116 280 -247 235 -245 438 -539 595 -866 68 -140
184 -435 185 -468 0 -5 2 -12 5 -15 10 -8 67 -206 106 -360 34 -137 35 -145
18 -157 -10 -8 -145 -78 -301 -156 -155 -78 -280 -143 -278 -145 2 -2 137 64
299 146 163 82 298 146 301 143 2 -4 7 -30 10 -58 l7 -50 -178 -98 c-99 -54
-230 -127 -293 -162 -62 -35 -117 -63 -122 -63 -4 0 -11 17 -14 38 -20 116
-85 372 -132 516 l-26 79 24 19 24 19 -24 -11 c-23 -12 -40 -2 -41 23 0 21
-100 259 -167 397 -92 191 -199 372 -305 516 -95 129 -90 122 -95 106 -3 -6
-9 -10 -14 -6 -5 3 -9 0 -9 -6 0 -6 -6 -10 -12 -8 -7 1 -26 -10 -42 -25 -16
-15 -35 -27 -42 -27 -8 0 -14 -6 -14 -14 0 -8 -13 -23 -29 -32 -17 -10 -28
-21 -25 -26 3 -4 -1 -8 -9 -8 -7 0 -26 -13 -43 -28 -34 -33 -71 -55 -82 -48
-4 3 -14 0 -22 -6 -12 -8 -12 -9 3 -4 20 6 22 -5 5 -22 -17 -17 -41 -15 -34 3
3 8 2 14 -2 13 -4 -1 -70 61 -148 138 -77 77 -179 171 -225 208 -339 273 -816
498 -1294 609 -135 31 -150 36 -153 57 -3 16 0 20 10 15 10 -6 11 -5 1 6 -7 7
-13 20 -13 29 0 13 1 13 10 0 8 -13 10 -13 10 2 0 9 -6 19 -12 21 -7 3 -4 6 6
6 20 1 20 1 0 16 -19 15 -19 15 1 9 16 -6 18 -4 8 6 -9 10 -9 18 -1 34 10 19
10 20 -6 7 -14 -12 -16 -12 -10 2 3 8 12 18 20 21 8 3 14 11 14 18 0 9 -3 8
-10 -2 -11 -17 -11 -17 -13 28 -2 34 9 44 16 15 3 -11 3 -11 2 2 -2 11 -6 30
-8 41 -3 12 1 34 8 48 8 15 11 25 7 22 -12 -7 -9 87 2 100 10 11 78 -1 239
-41z m-36538 -17 c14 -6 25 -15 25 -20 0 -5 5 -6 10 -3 6 3 13 -1 16 -9 3 -9
10 -16 15 -16 11 0 123 -72 127 -82 2 -5 9 -8 17 -8 7 0 18 -6 24 -14 7 -8 26
-21 44 -30 33 -17 63 -35 81 -49 9 -7 72 -46 163 -103 10 -7 16 -14 13 -16 -3
-3 -75 -51 -160 -108 -376 -249 -639 -502 -882 -850 -79 -114 -198 -317 -260
-446 -33 -68 -63 -124 -67 -124 -4 0 -140 71 -302 159 -242 130 -293 161 -291
177 6 35 141 298 220 429 267 443 625 806 1052 1067 100 61 114 65 155 46z
m-1223 -1692 c4 -6 8 -7 8 -3 0 9 111 -51 121 -66 3 -5 8 -8 10 -6 7 4 49 -12
49 -20 0 -4 16 -13 35 -20 19 -7 35 -17 35 -22 0 -6 5 -7 10 -4 6 3 10 1 10
-5 0 -6 5 -8 10 -5 6 3 10 1 10 -5 0 -6 5 -8 10 -5 6 3 10 2 10 -3 0 -5 16
-16 35 -23 27 -11 33 -17 25 -29 -9 -13 -11 -13 -20 0 -5 8 -10 11 -10 6 0 -5
-8 -3 -17 5 -29 23 -80 49 -96 49 -9 0 -17 3 -19 8 -1 4 -50 31 -108 60 -269
136 -325 169 -328 192 -3 21 5 18 105 -35 59 -32 111 -63 115 -69z m11403
-5418 c4 -4 4 -11 1 -17 -7 -10 -170 -65 -526 -176 -488 -153 -842 -295 -1340
-539 -197 -96 -547 -288 -675 -371 -235 -151 -362 -240 -485 -336 -347 -272
-442 -354 -672 -578 -93 -90 -168 -160 -168 -157 0 11 136 223 213 331 444
627 1035 1132 1752 1495 281 142 540 244 671 265 201 31 480 59 849 85 137 9
370 8 380 -2z m16772 -4 c23 -16 -2 -25 -567 -204 -568 -180 -1132 -425 -1685
-733 -216 -120 -529 -320 -671 -428 -157 -120 -289 -223 -294 -229 -3 -3 -39
-32 -80 -65 -41 -32 -105 -87 -142 -122 -36 -34 -69 -63 -73 -63 -26 0 262
356 419 518 386 398 806 712 1281 958 262 135 622 284 734 303 147 25 501 59
706 67 94 4 172 9 175 11 10 9 182 -2 197 -13z m3258 -498 c11 -6 23 -15 27
-21 4 -5 8 -7 8 -3 0 17 384 -240 515 -346 200 -160 459 -401 601 -561 107
-120 264 -319 264 -334 0 -7 7 -14 15 -17 8 -4 15 -12 15 -20 0 -8 5 -14 10
-14 6 0 10 -4 10 -10 0 -22 -19 -7 -65 51 -142 181 -609 655 -726 737 -12 8
-31 23 -40 31 -45 41 -187 151 -194 151 -2 0 -16 11 -31 25 -15 14 -66 51
-113 83 -47 31 -88 60 -91 63 -7 7 -156 110 -183 126 -12 6 -34 24 -51 40 -16
15 -34 27 -39 25 -4 -1 -6 1 -3 6 3 5 -10 16 -29 25 -19 9 -35 22 -35 28 0 6
26 -4 58 -22 31 -17 66 -37 77 -43z m-19070 -26 c1051 -86 1980 -500 2704
-1205 315 -307 557 -632 750 -1010 306 -595 440 -1211 409 -1873 -28 -616
-208 -1203 -536 -1750 -600 -999 -1679 -1718 -2892 -1926 -318 -55 -390 -61
-785 -60 -336 1 -388 3 -570 26 -110 14 -201 25 -203 23 -1 -1 9 -42 23 -90
30 -105 32 -154 6 -186 -39 -48 -131 -31 -570 107 -829 260 -1470 598 -1917
1010 -243 224 -480 552 -621 859 -54 117 -59 131 -68 185 -3 19 -11 40 -17 47
-8 11 -7 12 7 7 13 -5 16 -4 11 4 -10 17 3 15 21 -3 8 -8 18 -13 23 -10 4 3
11 -2 14 -11 3 -8 11 -12 17 -9 5 4 28 -5 49 -19 22 -14 44 -26 50 -26 6 0 22
-11 35 -25 14 -13 25 -19 25 -12 0 8 3 8 8 1 8 -11 76 -54 86 -54 14 0 3 23
-60 127 -340 558 -522 1147 -553 1781 -53 1079 359 2104 1160 2888 729 712
1654 1121 2734 1207 98 8 551 6 660 -3z m17030 -14 c738 -95 1321 -304 1916
-688 440 -284 853 -691 1146 -1130 592 -883 780 -1931 531 -2956 -184 -761
-626 -1471 -1248 -2005 -591 -508 -1346 -855 -2132 -981 -280 -45 -357 -50
-718 -51 -367 0 -414 3 -735 51 -87 13 -160 22 -162 21 -1 -2 9 -38 22 -80 64
-201 35 -265 -108 -237 -210 41 -766 225 -1102 365 -206 86 -542 253 -659 328
-277 177 -431 291 -580 430 -196 182 -353 373 -485 587 -104 169 -201 375
-215 457 -3 15 -8 41 -12 56 -7 33 6 33 54 -1 22 -16 32 -19 33 -10 0 10 2 10
6 1 2 -7 10 -13 18 -13 7 0 19 -8 26 -17 13 -17 13 -17 -6 -3 -18 14 -19 14
-7 -2 8 -9 19 -15 26 -12 8 3 16 -2 20 -12 4 -12 10 -13 19 -6 14 12 56 -17
58 -40 0 -10 2 -10 6 0 2 6 9 12 14 12 6 0 7 -4 4 -10 -6 -9 8 -15 29 -11 5 1
6 -6 2 -15 -4 -12 -2 -15 9 -10 8 3 15 1 15 -4 0 -6 3 -9 8 -8 4 1 21 -5 37
-12 17 -7 34 -14 38 -14 4 -1 12 -8 17 -16 5 -8 10 -11 10 -6 0 4 16 -4 35
-18 46 -35 44 -19 -4 53 -193 284 -379 664 -481 986 -62 197 -115 438 -147
675 -25 193 -26 687 0 885 97 741 387 1400 874 1984 112 135 350 374 473 475
52 43 107 89 122 101 14 13 59 48 100 78 643 473 1423 764 2243 837 153 13
748 4 890 -14z m3555 -1371 c0 -5 -11 4 -25 20 -13 17 -24 35 -24 40 0 6 11
-3 24 -20 14 -16 25 -34 25 -40z m-312 -5407 c-242 -287 -563 -573 -923 -820
-137 -94 -315 -200 -328 -195 -20 6 6 27 493 388 260 194 570 461 770 663 46
47 86 86 88 86 1 0 -44 -55 -100 -122z m7885 -10548 c147 -91 267 -169 267
-175 0 -23 -53 -145 -61 -140 -5 4 -6 -1 -3 -9 7 -19 -131 -306 -214 -443
-130 -215 -268 -395 -440 -574 -95 -100 -261 -249 -276 -249 -5 0 -390 275
-514 367 l-33 25 126 120 c192 184 339 359 478 571 83 125 197 331 247 445 34
77 48 101 60 97 11 -5 12 -3 3 5 -8 9 -8 20 3 46 47 115 41 106 67 92 13 -7
144 -87 290 -178z"/>
<path d="M43187 28489 c7 -7 15 -10 18 -7 3 3 -2 9 -12 12 -14 6 -15 5 -6 -5z"/>
<path d="M43111 28414 c0 -11 3 -14 6 -6 3 7 2 16 -1 19 -3 4 -6 -2 -5 -13z"/>
<path d="M43068 28393 c7 -3 16 -2 19 1 4 3 -2 6 -13 5 -11 0 -14 -3 -6 -6z"/>
<path d="M44455 27810 c-3 -6 1 -7 9 -4 18 7 21 14 7 14 -6 0 -13 -4 -16 -10z"/>
<path d="M44374 27764 c-18 -14 -18 -15 4 -4 12 6 22 13 22 15 0 8 -5 6 -26
-11z"/>
<path d="M44325 27740 c-3 -6 1 -7 9 -4 18 7 21 14 7 14 -6 0 -13 -4 -16 -10z"/>
<path d="M44244 27694 c-18 -14 -18 -15 4 -4 12 6 22 13 22 15 0 8 -5 6 -26
-11z"/>
<path d="M44195 27670 c-3 -6 1 -7 9 -4 18 7 21 14 7 14 -6 0 -13 -4 -16 -10z"/>
<path d="M44114 27624 c-18 -14 -18 -15 4 -4 12 6 22 13 22 15 0 8 -5 6 -26
-11z"/>
<path d="M44065 27600 c-3 -6 1 -7 9 -4 18 7 21 14 7 14 -6 0 -13 -4 -16 -10z"/>
<path d="M43921 32137 c-8 -10 -7 -14 2 -14 8 0 14 6 14 14 0 7 -1 13 -2 13
-2 0 -8 -6 -14 -13z"/>
<path d="M43867 32133 c-13 -12 -7 -23 11 -22 10 0 12 3 4 6 -6 2 -10 9 -6 14
6 10 0 12 -9 2z"/>
<path d="M43896 32085 c4 -8 8 -15 10 -15 2 0 4 7 4 15 0 8 -4 15 -10 15 -5 0
-7 -7 -4 -15z"/>
<path d="M43920 32043 c0 -4 5 -15 10 -23 8 -13 10 -13 10 2 0 9 -4 20 -10 23
-5 3 -10 3 -10 -2z"/>
<path d="M43903 31995 c0 -8 4 -15 9 -15 4 0 8 4 8 9 0 6 -4 12 -8 15 -5 3 -9
-1 -9 -9z"/>
<path d="M43901 31911 c-1 -8 -7 -11 -17 -7 -8 3 -12 2 -9 -4 3 -6 13 -10 21
-10 8 0 14 -5 14 -12 0 -6 2 -9 5 -6 3 3 1 16 -4 29 -5 13 -10 18 -10 10z"/>
<path d="M43880 31856 c0 -2 7 -7 16 -10 8 -3 12 -2 9 4 -6 10 -25 14 -25 6z"/>
<path d="M43890 31810 c0 -5 5 -10 11 -10 5 0 7 5 4 10 -3 6 -8 10 -11 10 -2
0 -4 -4 -4 -10z"/>
<path d="M46654 30542 c3 -5 0 -13 -6 -15 -9 -4 -10 -6 -1 -6 17 -1 25 16 12
25 -7 4 -9 3 -5 -4z"/>
<path d="M46621 30514 c0 -11 3 -14 6 -6 3 7 2 16 -1 19 -3 4 -6 -2 -5 -13z"/>
<path d="M46345 30340 c-3 -5 -1 -10 4 -10 6 0 11 5 11 10 0 6 -2 10 -4 10 -3
0 -8 -4 -11 -10z"/>
</g>
</svg>
